<svg width="714" height="695" viewBox="0 0 714 695" fill="none" xmlns="http://www.w3.org/2000/svg">
<path d="M233.773 405.965C241.542 341.758 281.204 286.604 339.885 258.44C398.554 230.287 466.763 233.668 522.318 267.48L656.208 348.969C678.421 362.482 695.301 382.321 705.019 406.304C714.737 430.3 716.374 456.211 709.764 481.224C703.136 506.238 688.876 528.004 668.527 544.171C648.179 560.338 623.647 569.379 597.587 570.324L595.84 570.384C530.502 573.22 468.828 603.082 426.368 652.503C415.423 665.24 402.182 675.384 387.304 682.522C379.218 686.4 370.643 689.394 361.689 691.442C336.282 697.235 310.239 694.823 286.346 684.449C262.478 674.075 243.007 656.721 230.072 634.264C217.136 611.807 211.944 586.37 215.047 560.689L233.773 405.965Z" fill="#DCC5C5"/>
<path d="M579.991 239.184C554.002 241.379 528.814 231.76 509.063 212.11C490.255 193.415 478.617 167.675 476.282 139.622C473.959 111.569 481.188 84.2587 496.635 62.7083C512.86 40.0602 536.102 26.4053 562.067 24.2455C614.269 19.8788 660.776 64.5376 665.749 123.831C669.654 171.051 646.038 213.491 609.883 230.993C600.65 235.466 590.603 238.31 579.991 239.184Z" fill="#DCC5C5"/>
<path d="M372.914 229.969C321.2 255.768 255.958 227.317 227.458 166.552C198.959 105.764 217.829 35.3284 269.542 9.51799C321.234 -16.281 386.488 12.1813 414.998 72.9695C443.487 133.735 424.616 204.17 372.914 229.969Z" fill="#DCC5C5"/>
<path d="M210.35 357.336V357.348C203.355 364.156 195.5 369.603 187.043 373.711C147.563 392.867 95.1824 382.707 59.1366 345.535C38.3932 324.133 25.9448 296.9 24.1002 268.853C22.1627 239.502 31.9196 212.769 51.5841 193.59C71.2486 174.41 98.1524 165.368 127.353 168.126C155.255 170.768 182.043 184.012 202.786 205.414C246.547 250.558 249.946 318.71 210.35 357.336Z" fill="#DCC5C5"/>
<path d="M8.84594 430.006L8.85662 429.983C30.9254 384.594 87.6022 369.629 135.219 396.616C182.803 423.649 203.613 482.56 181.608 527.938C173.583 544.495 160.948 557.013 145.826 564.917C119.468 578.704 85.5426 578.497 55.246 561.34C7.65072 534.307 -13.1589 475.396 8.84594 430.006Z" fill="#DCC5C5"/>
</svg>
